General
Complete name : Ying.xiong.[Hero].2002.BRRip.H264.AAC.5.1ch.Gopo.mp4
Format : MPEG-4
Format profile : Base Media
Codec ID : isom
File size : 1.55 GiB
Duration : 1h 39mn
Overall bit rate : 2 244 Kbps
Encoded date : UTC 2009-11-24 10:29:51
Tagged date : UTC 2009-11-24 10:29:51
Video #1
ID : 1
Format : AVC
Format/Info : Advanced Video Codec
Format profile : High@L4.1
Format settings, CABAC : Yes
Format settings, ReFrames : 4 frames
Codec ID : avc1
Codec ID/Info : Advanced Video Coding
Duration : 1h 39mn
Bit rate mode : Variable
Bit rate : 1 876 Kbps
Maximum bit rate : 9 081 Kbps
Width : 1 280 pixels
Height : 544 pixels
Display aspect ratio : 2.35:1
Frame rate mode : Constant
Frame rate : 23.976 fps
Resolution : 24 bits
Colorimetry : 4:2:0
Scan type : Progressive
Bits/(Pixel*Frame) : 0.112
Stream size : 1.30 GiB (84%)
Writing library : x264 core 68 r1183M f21daff
Encoding settings : cabac=1 / ref=4 / deblock=1:-1:-1 / analyse=0x3:0x113 / me=umh / subme=8 / psy_rd=1.0:0.0 / mixed_ref=1 / me_range=16 / chroma_me=1 / trellis=2 / 8x8dct=1 / cqm=0 / deadzone=21,11 / chroma_qp_offset=-2 / threads=1 / nr=0 / decimate=1 / mbaff=0 / bframes=3 / b_pyramid=0 / b_adapt=2 / b_bias=0 / direct=3 / wpredb=1 / keyint=250 / keyint_min=25 / scenecut=40 / rc=2pass / bitrate=1876 / ratetol=1.0 / qcomp=0.60 / qpmin=10 / qpmax=51 / qpstep=4 / cplxblur=20.0 / qblur=0.5 / vbv_maxrate=50000 / vbv_bufsize=50000 / ip_ratio=1.40 / pb_ratio=1.30 / aq=1:1.00
Encoded date : UTC 2009-11-23 03:45:22
Tagged date : UTC 2009-11-24 10:31:34
Audio #2
ID : 2
Format : AAC
Format/Info : Advanced Audio Codec
Format version : Version 4
Format profile : LC
Format settings, SBR : No
Codec ID : 40
Duration : 1h 39mn
Bit rate mode : Variable
Bit rate : 365 Kbps
Maximum bit rate : 494 Kbps
Channel(s) : 6 channels
Channel positions : Front: L C R, Rear: L R, LFE
Sampling rate : 48.0 KHz
Resolution : 16 bits
Stream size : 259 MiB (16%)
Encoded date : UTC 2009-11-24 10:31:21
Tagged date : UTC 2009-11-24 10:31:34
Sample : YES
Subtitle : English,Romanian

PLOT

In ancient times China was divided into seven kingdoms. Qin, the king of the western most province, is under permanent threat of assassination attempts. His greatest fears are the warriors "Broken Sword", "Flying Snow" and "Sky". One day one of the magistrates of his kingdom enters the palace, claims that he defeated all three of the emperor's adversaries and tells his story; how he beat "Sky" in a duel and used the love between "Broken Sword" and "Flying Snow" to subdue them.

Director: Yimou Zhang
CASTING

Jet Li ... Nameless
Tony Leung Chiu Wai ... Broken Sword
Maggie Cheung ... Flying Snow (as Maggie Cheung Man-Yuk)
Ziyi Zhang ... Moon (as Zhang Ziyi)
Daoming Chen ... King of Qin
Donnie Yen ... Sky
Liu Zhong Yuan ... Scholar
Zheng Tia Yong ... Old Servant
Yan Qin ... Prime Minister
Chang Xiao Yang ... General
Yakun Zhang ... Commander
Ma Wen Hua ... Head Eunuch
Jin Ming ... Eunuch
Xu Kuang Hua ... Pianist
Wang Shou Xin ... Musician

SOURCE: Hero.2002.Bluray.1080p.DTS.x264-EOS.mkv

Notes: For best performance I suggest you to use KMPlayer(find it with google) for playback
I haven't tested the movies on a PS3 or Xbox or other devices than PC because I don't own one of them but feel free to test them if you have the oportunity.